# xmcd
#
# Track frame offsets:
# 150
# 12424
# 24498
# 37902
# 50492
# 62895
# 76115
# 88609
# 103413
# 114962
#
# Disc length: 1706 seconds
#
#
# Revision: 0
# Processed by: cddbd v1.5.1PL2 Copyright (c) Steve Scherf et al.
# Submitted via: FreeRIP 2.944 
#
DISCID=7506a80a
DTITLE=Hawksaw Hawkins - 
DYEAR=1900
DGENRE=
TTITLE0=Lonesome 7-7203
TTITLE1=Dog House Boogie
TTITLE2=Slow Poke
TTITLE3=I'm Waiting Just For You
TTITLE4=I Love You A Thousand Ways
TTITLE5=Pan American
TTITLE6=I Wasted A Nickel
TTITLE7=Life Story Of Hank Williams
TTITLE8=Barbara Allen
TTITLE9=Sunny Side Of The Mountain
EXTD=
EXTT0=
EXTT1=
EXTT2=
EXTT3=
EXTT4=
EXTT5=
EXTT6=
EXTT7=
EXTT8=
EXTT9=
PLAYORDER=
